<?xml version="1.0" standalone="no"?>
<!DOCTYPE svg PUBLIC "-//W3C//DTD SVG 20010904//EN"
 "http://www.w3.org/TR/2001/REC-SVG-20010904/DTD/svg10.dtd">
<svg version="1.0" xmlns="http://www.w3.org/2000/svg"
 width="512.000000pt" height="512.000000pt" viewBox="0 0 512.000000 512.000000"
 preserveAspectRatio="xMidYMid meet">
<metadata>
Created by potrace 1.14, written by Peter Selinger 2001-2017
</metadata>
<g transform="translate(0.000000,512.000000) scale(0.100000,-0.100000)"
fill="#000000" stroke="none">
<path d="M0 2560 l0 -2560 2560 0 2560 0 0 2560 0 2560 -2560 0 -2560 0 0
-2560z m2134 1915 c28 -8 61 -23 75 -32 16 -10 52 -17 101 -19 106 -5 145 -25
172 -87 18 -40 29 -52 64 -68 34 -14 47 -27 63 -63 24 -52 26 -83 8 -105 -7
-9 -19 -35 -25 -58 -29 -104 -37 -126 -50 -139 -10 -10 -12 -26 -7 -53 4 -26
2 -49 -8 -68 -8 -17 -11 -37 -6 -53 4 -15 7 -18 8 -8 1 25 21 33 38 15 27 -27
9 -47 -42 -47 -37 0 -51 -6 -84 -35 -21 -19 -44 -35 -50 -35 -6 0 -20 -5 -31
-12 -15 -10 -22 -9 -39 6 -18 16 -26 17 -68 7 -26 -6 -64 -18 -83 -25 -104
-41 -351 -62 -434 -37 -17 6 -76 14 -131 20 -90 9 -102 8 -120 -7 -58 -51 -97
-51 -140 -1 -22 27 -25 40 -25 105 0 41 -5 83 -11 93 -9 13 -9 26 -1 51 9 26
9 36 -3 53 -19 27 -19 124 0 157 9 16 14 54 15 103 0 44 4 77 10 77 5 0 22 19
37 43 16 23 39 51 53 62 26 22 144 75 165 75 7 0 19 7 26 16 21 25 42 32 204
68 85 19 258 19 319 1z m231 -1191 c35 -37 34 -86 -2 -112 -23 -17 -25 -22
-15 -35 17 -21 5 -85 -18 -100 -14 -8 -16 -16 -9 -35 7 -18 6 -28 -5 -36 -26
-21 -36 -204 -15 -259 22 -53 -16 -69 -106 -45 -36 10 -50 10 -65 0 -28 -17
-51 -15 -44 3 4 8 10 15 15 15 36 0 78 84 59 120 -9 17 -20 20 -79 20 -61 0
-69 2 -80 23 -11 20 -9 29 10 61 12 21 22 47 23 59 1 15 8 23 24 25 13 2 22
10 22 21 0 32 26 44 82 38 79 -10 88 3 88 120 0 86 2 96 25 118 31 32 60 32
90 -1z m-1007 -66 c3 -18 -44 -41 -69 -33 -15 5 -19 16 -19 50 l0 43 43 -22
c23 -12 43 -29 45 -38z m27 -68 c3 -5 17 -10 31 -10 13 0 43 -12 65 -26 32
-20 38 -28 29 -39 -8 -10 -3 -18 24 -35 47 -28 86 -76 86 -105 0 -16 7 -25 25
-29 14 -4 25 -10 25 -15 0 -24 -66 -141 -80 -141 -5 0 -12 -9 -15 -21 -10 -29
-93 -113 -138 -138 -42 -23 -81 -26 -113 -8 -34 19 -74 73 -74 98 0 13 -7 32
-15 43 -11 14 -12 42 -8 125 3 58 10 111 15 117 5 7 10 41 11 78 3 82 29 116
88 116 21 0 41 -4 44 -10z m1023 -1017 c4 -24 -39 -60 -58 -48 -11 7 -14 58
-3 69 4 4 19 6 33 4 17 -2 26 -10 28 -25z"/>
</g>
</svg>
